<?xml version="1.0" encoding="UTF-8"?>
<svg width="30" height="30" fill="none" viewBox="0 0 30 30" xmlns="http://www.w3.org/2000/svg">
<circle cx="15" cy="15" r="15" fill="url(#b)"/>
<circle cx="15" cy="15" r="15" fill="url(#a)"/>
<g clip-path="url(#c)">
<path d="m15 8.0816c2.253 0 2.5197 0.0087 3.4096 0.04923 0.8225 0.03751 1.2693 0.17483 1.5667 0.29038 0.367 0.13511 0.6989 0.35086 0.9713 0.63134 0.2805 0.27244 0.4963 0.60436 0.6314 0.97131 0.1155 0.2974 0.2528 0.7442 0.2904 1.5668 0.0405 0.8899 0.0492 1.1565 0.0492 3.4095 0 2.2531-0.0087 2.5197-0.0492 3.4096-0.0376 0.8226-0.1749 1.2694-0.2904 1.5668-0.1406 0.3638-0.3556 0.6942-0.6314 0.9699-0.2757 0.2758-0.6061 0.4909-0.9699 0.6314-0.2974 0.1155-0.7442 0.2529-1.5668 0.2904-0.8896 0.0405-1.1565 0.0492-3.4096 0.0492-2.253 0-2.52-0.0087-3.4095-0.0492-0.8226-0.0375-1.2694-0.1749-1.5668-0.2904-0.36695-0.1351-0.69887-0.3509-0.97131-0.6314-0.28048-0.2724-0.49623-0.6043-0.63134-0.9712-0.11555-0.2975-0.25287-0.7443-0.29038-1.5668-0.04053-0.8899-0.04923-1.1565-0.04923-3.4096s0.0087-2.5197 0.04923-3.4096c0.03751-0.8225 0.17483-1.2693 0.29038-1.5668 0.13511-0.36689 0.35086-0.69881 0.63134-0.97125 0.27244-0.28048 0.60436-0.49623 0.97131-0.63134 0.2974-0.11555 0.7442-0.25287 1.5668-0.29038 0.8899-0.04053 1.1565-0.04923 3.4095-0.04923l-0.0013 0.00134zm0.0013-1.5216c-2.2915 0-2.5789 0.00971-3.4789 0.05091-0.8999 0.04119-1.5128 0.18488-2.0487 0.3932-0.56315 0.21199-1.0734 0.54413-1.4951 0.9733-0.42917 0.42177-0.7613 0.93197-0.9733 1.4951-0.20832 0.53591-0.351 1.1501-0.39186 2.0481-0.04086 0.8979-0.05091 1.1866-0.05091 3.4782s0.00971 2.5789 0.05091 3.4789c0.0412 0.8999 0.18354 1.5115 0.39186 2.0474 0.21208 0.5629 0.54421 1.0729 0.9733 1.4945 0.42163 0.4294 0.93186 0.7617 1.4951 0.9736 0.53591 0.2086 1.1501 0.3513 2.0481 0.3922 0.8979 0.0408 1.1873 0.0509 3.4789 0.0509 2.2915 0 2.5789-0.0097 3.4789-0.0509 0.8999-0.0412 1.5108-0.1836 2.0467-0.3922 0.5607-0.2166 1.0699-0.5481 1.4949-0.9732 0.4251-0.425 0.7565-0.9342 0.9732-1.4949 0.2086-0.5359 0.3513-1.1501 0.3922-2.0481 0.0408-0.8979 0.0509-1.1873 0.0509-3.4789 0-2.2915-0.0097-2.5789-0.0509-3.4789-0.0412-0.8999-0.1836-1.5108-0.3922-2.0467-0.2118-0.56296-0.5439-1.073-0.973-1.4944-0.4217-0.42941-0.9319-0.76178-1.4951-0.97397-0.5359-0.20832-1.1501-0.351-2.0481-0.39186-0.8979-0.04086-1.1866-0.05091-3.4782-0.05091l0.0013-0.00134z" fill="#fff"/>
<path d="m15 10.668c-0.857 0-1.6946 0.2541-2.4071 0.7302-0.7125 0.476-1.2678 1.1527-1.5958 1.9444-0.3279 0.7917-0.4137 1.6628-0.2465 2.5033 0.1672 0.8404 0.5798 1.6124 1.1857 2.2183 0.606 0.606 1.378 1.0186 2.2184 1.1858s1.7116 0.0814 2.5033-0.2466c0.7917-0.3279 1.4683-0.8832 1.9444-1.5957s0.7302-1.5502 0.7302-2.4071c0-0.569-0.112-1.1324-0.3297-1.6581-0.2178-0.5256-0.5369-1.0033-0.9392-1.4056-0.4024-0.4024-0.88-0.7215-1.4057-0.9392-0.5256-0.2177-1.0891-0.3298-1.658-0.3297zm0 7.146c-0.5565 0-1.1004-0.165-1.5631-0.4741-0.4626-0.3092-0.8232-0.7486-1.0362-1.2627-0.2129-0.514-0.2686-1.0797-0.1601-1.6255 0.1086-0.5457 0.3765-1.047 0.77-1.4405 0.3934-0.3934 0.8947-0.6614 1.4405-0.7699 0.5457-0.1086 1.1114-0.0529 1.6255 0.1601 0.5141 0.2129 0.9535 0.5735 1.2626 1.0362 0.3091 0.4626 0.4741 1.0066 0.4741 1.563 0 0.7462-0.2964 1.4618-0.824 1.9894s-1.2432 0.824-1.9893 0.824z" fill="#fff"/>
<path d="m19.504 11.508c0.5592 0 1.0125-0.4533 1.0125-1.0125s-0.4533-1.0125-1.0125-1.0125-1.0125 0.4533-1.0125 1.0125 0.4533 1.0125 1.0125 1.0125z" fill="#fff"/>
<path d="m20.138-141.3c12.712 0 56.494 3.412 77.128 49.687 6.7973 15.234 5.0533 42.825 3.6563 64.997-0.216 3.5156-0.431 6.9187-0.609 10.181l-0.075 1.3969 0.937 1.0406c0.375 0.4219 3.909 4.1063 11.756 4.4156h0.263c5.194-0.19688 11.044-1.8094 17.4-4.7812 1.098-0.4545 2.28-0.6717 3.469-0.6375 1.508-0.0086 3.005 0.2747 4.406 0.8344l0.206 0.0844c3.328 1.1625 5.681 3.3656 5.719 5.3531 0 1.1344-0.825 5.1844-12.628 9.8531-1.153 0.45-2.682 0.9375-4.435 1.4906-7.687 2.4469-19.293 6.1219-23.203 15.328-2.203 5.1937-1.603 11.306 1.791 18.188 1.397 3.2531 23.325 52.659 72.684 60.797-0.024 0.2722-0.094 0.5383-0.206 0.7875-0.834 1.9688-6.159 8.7746-39.244 13.885-5.175 0.797-6.44 6.562-7.922 13.34-0.515 2.419-1.068 4.847-1.809 7.369-0.225 0.769-0.263 0.806-1.088 0.806h-0.384c-2.113-0.085-4.215-0.355-6.281-0.806-6.359-1.329-12.835-2.014-19.331-2.044-4.7126 0.011-9.416 0.409-14.063 1.191-10.125 1.678-18.366 7.5-27.084 13.669-11.709 8.278-23.812 16.875-42.281 16.875-0.8062 0-1.5937 0-2.3812-0.066h-0.4219c-0.45 0.038-0.9094 0.056-1.3781 0.056-18.459 0-30.572-8.559-42.281-16.875-8.7187-6.159-16.959-11.99-27.075-13.668-4.6469-0.782-9.3503-1.18-14.062-1.191-6.501 0.064-12.979 0.792-19.331 2.175-2.065 0.481-4.1657 0.795-6.2813 0.938-1.1906 0-1.2187-0.066-1.4718-0.938-0.7407-2.522-1.2844-5.016-1.8094-7.425-1.4719-6.75-2.7467-12.591-7.9217-13.387-33.085-5.11-38.438-11.926-39.244-13.894-0.115-0.2542-0.182-0.5276-0.197-0.8062 49.35-8.1282 71.25-57.534 72.675-60.797 3.3937-6.8813 3.9937-12.994 1.7906-18.188-3.9-9.2063-15.516-12.881-23.203-15.328-1.7531-0.55313-3.2719-1.0406-4.4344-1.4906-9.9753-3.9469-13.04-7.9125-12.581-10.312 0.534-2.8125 5.344-5.625 9.534-5.625 0.817-0.0277 1.6293 0.1226 2.3817 0.4407 6.8156 3.1875 13.041 4.8093 18.488 4.8093 8.5781 0 12.403-3.9937 12.806-4.4437l0.9375-1.0406-0.075-1.3969c-0.1781-3.2531-0.3843-6.6563-0.6093-10.172-1.3969-22.162-3.1313-49.744 3.6562-64.969 20.559-46.097 64.125-49.641 76.988-49.641l5.9063-0.056h0.7593l0.0657-9e-3zm-0.0657-6.985h-0.8343l-5.8407 0.057c-13.922 0-61.106 3.881-83.372 53.793-7.5 16.791-5.6907 45.309-4.2469 68.222 0.1687 2.7 0.3469 5.5031 0.4969 8.2219-2.032 1.0217-4.2898 1.512-6.5625 1.425-4.4157 0-9.6375-1.3969-15.525-4.1532-1.6808-0.7473-3.5046-1.1185-5.3436-1.0874-6.891 0-15.122 4.5281-16.406 11.25-0.938 4.8656 1.246 11.953 16.875 18.131 1.4058 0.55313 3.1027 1.0969 4.8933 1.6594 6.4594 2.0531 16.219 5.1468 18.872 11.391 1.3687 3.2344 0.825 7.3875-1.6219 12.356-0.0562 0.1125-0.1125 0.2251-0.1594 0.3469-0.8625 1.9969-21.516 49.088-67.388 56.644-1.693 0.2962-3.219 1.2052-4.286 2.5537-1.066 1.3485-1.6 3.0423-1.498 4.7588 0.067 1.0823 0.32 2.145 0.75 3.1408 3.45 8.053 18 13.95 44.409 18.047 0.938 1.2 1.8 5.418 2.372 7.997 0.572 2.578 1.116 5.156 1.932 7.912 0.815 2.756 2.8683 5.963 8.1839 5.963 2.5682-0.126 5.1195-0.487 7.6219-1.079 5.9123-1.287 11.94-1.968 17.991-2.034 4.3225 0.011 8.6368 0.375 12.9 1.088 8.5313 1.425 15.778 6.562 24.169 12.478 12.028 8.503 25.641 18.122 46.331 18.122 0.5719 0 1.1438 0 1.7063-0.057 0.5625-0.056 1.5469 0.057 2.475 0.057 20.7 0 34.312-9.629 46.322-18.122 8.4375-5.935 15.656-11.063 24.188-12.478 4.26-0.714 8.5713-1.077 12.891-1.088 6.044 0.021 12.071 0.649 17.99 1.875 2.507 0.545 5.058 0.859 7.622 0.938h0.385c1.779 0.094 3.535-0.439 4.962-1.506s2.435-2.601 2.847-4.335c0.797-2.709 1.369-5.259 1.931-7.838 0.563-2.578 1.472-6.768 2.353-7.959 26.447-4.106 40.969-9.994 44.4-18.009 0.434-1.0017 0.691-2.0706 0.76-3.1597 0.094-1.7229-0.45-3.4201-1.53-4.7661-1.079-1.3461-2.618-2.2461-4.32-2.5276-45.891-7.5563-66.563-54.647-67.388-56.644-0.047-0.1125-0.103-0.225-0.159-0.3375-2.447-4.9687-2.991-9.1219-1.622-12.356 2.653-6.2438 12.412-9.375 18.862-11.391 1.81-0.57188 3.507-1.1063 4.904-1.6594 11.437-4.5188 17.175-10.069 17.062-16.491-0.103-5.0437-4.031-9.5531-10.312-11.784-2.236-0.8974-4.623-1.3557-7.032-1.3499-2.224-0.0302-4.429 0.4141-6.468 1.3031-5.438 2.55-10.313 3.9375-14.541 4.125-1.973-0.0281-3.914-0.5092-5.672-1.4063 0.131-2.325 0.281-4.6875 0.441-7.2187l0.056-0.9375c1.444-22.931 3.244-51.469-4.247-68.278-22.275-49.932-69.562-53.813-83.522-53.813l-0.0563 9e-3z" fill="#030303"/>
</g>
<defs>
<radialGradient id="b" cx="0" cy="0" r="1" gradientTransform="translate(7.9688 32.311) rotate(-90) scale(29.732 27.653)" gradientUnits="userSpaceOnUse">
<stop stop-color="#fd5" offset="0"/>
<stop stop-color="#fd5" offset=".1"/>
<stop stop-color="#FF543E" offset=".5"/>
<stop stop-color="#C837AB" offset="1"/>
</radialGradient>
<radialGradient id="a" cx="0" cy="0" r="1" gradientTransform="translate(-5.0252 2.1612) rotate(78.681) scale(13.29 54.784)" gradientUnits="userSpaceOnUse">
<stop stop-color="#3771C8" offset="0"/>
<stop stop-color="#3771C8" offset=".128"/>
<stop stop-color="#60f" stop-opacity="0" offset="1"/>
</radialGradient>
<clipPath id="c">
<rect transform="translate(6.5625 6.5625)" width="16.875" height="16.875" fill="#fff"/>
</clipPath>
</defs>
</svg>
