<?xml version="1.0" encoding="UTF-8" standalone="no"?>
<svg
   xmlns:dc="http://purl.org/dc/elements/1.1/"
   xmlns:cc="http://creativecommons.org/ns#"
   xmlns:rdf="http://www.w3.org/1999/02/22-rdf-syntax-ns#"
   xmlns:svg="http://www.w3.org/2000/svg"
   xmlns="http://www.w3.org/2000/svg"
   xmlns:sodipodi="http://sodipodi.sourceforge.net/DTD/sodipodi-0.dtd"
   xmlns:inkscape="http://www.inkscape.org/namespaces/inkscape"
   inkscape:version="1.0 (4035a4fb49, 2020-05-01)"
   sodipodi:docname="Spotify-Logo.wine.svg"
   id="svg4"
   version="1.1"
   viewBox="-83.76405 -41.87075 167.48692 86.939064"
   width="276.85501"
   height="276.849">
  <metadata
     id="metadata10">
    <rdf:RDF>
      <cc:Work
         rdf:about="">
        <dc:format>image/svg+xml</dc:format>
        <dc:type
           rdf:resource="http://purl.org/dc/dcmitype/StillImage" />
        <dc:title></dc:title>
      </cc:Work>
    </rdf:RDF>
  </metadata>
  <defs
     id="defs8" />
  <sodipodi:namedview
     inkscape:current-layer="svg4"
     inkscape:window-maximized="1"
     inkscape:window-y="-6"
     inkscape:window-x="-6"
     inkscape:cy="226.00814"
     inkscape:cx="749.06953"
     inkscape:zoom="0.6125"
     showgrid="false"
     id="namedview6"
     inkscape:window-height="658"
     inkscape:window-width="1280"
     inkscape:pageshadow="2"
     inkscape:pageopacity="0"
     guidetolerance="10"
     gridtolerance="10"
     objecttolerance="10"
     borderopacity="1"
     bordercolor="#666666"
     pagecolor="#ffffff" />
  <path
     sodipodi:nodetypes="csssccccccccccccccccccccccccc"
     id="path2"
     fill="#1ed760"
     d="m -0.02105,-82.142859 c -46.249,0 -83.743,37.493064 -83.743,83.7421399 0,46.2510791 37.494,83.7411431 83.743,83.7411431 46.254,0 83.744,-37.490064 83.744,-83.7411431 0,-46.2460759 -37.49,-83.7381399 -83.745,-83.7381399 z m 38.404,120.780203 c -1.5031,2.463015 -4.72007,3.238126 -7.18,1.730003 -19.662,-12.01002 -44.414,-14.730025 -73.564,-8.070013 -2.810643,0.639141 -5.607607,-1.119872 -6.249,-3.930007 -0.6453,-2.810635 1.113895,-5.61119 3.926,-6.250011 31.9,-7.288012 59.263,-4.150007 81.337,9.340016 2.46,1.510003 3.24,4.720008 1.73,7.180012 z m 10.25,-22.802039 c -1.89,3.072006 -5.91,4.042007 -8.98,2.152004 -22.51,-13.8360237 -56.823,-17.84303055 -83.448,-9.7610167 -3.453,1.0430018 -7.1,-0.9030015 -8.148,-4.3500075 -1.041191,-3.45045086 0.906308,-7.0927381 4.354,-8.1430139 30.413,-9.2280159 68.222,-4.7580082 94.072,11.1270191 3.07,1.8900032 4.04,5.91001 2.15,8.976015 z m 0.88,-23.7440403 c -26.99,-16.0310247 -71.52,-17.5050267 -97.289,-9.6840167 -4.138,1.255002 -8.514,-1.081002 -9.768,-5.219009 -1.255629,-4.139854 1.081596,-8.513931 5.221,-9.771014 29.581,-8.980015 78.756,-7.245012 109.83,11.202017 3.72516,2.203696 4.95301,7.013381 2.74,10.733018 -2.2,3.7220063 -7.02,4.9490084 -10.73,2.7390047 z" />
</svg>
